<svg width="24" height="24" viewBox="0 0 24 24" fill="none" xmlns="http://www.w3.org/2000/svg">
<path d="M21.7504 14.25V20.4375C21.7504 20.5867 21.6911 20.7297 21.5856 20.8352C21.4802 20.9407 21.3371 21 21.1879 21H15.0004C13.6042 21.0003 12.2423 20.5677 11.1023 19.7618C9.96224 18.9559 9.10015 17.8163 8.63477 16.5H9.00039C10.7906 16.5 12.5075 15.7888 13.7734 14.523C15.0392 13.2571 15.7504 11.5402 15.7504 9.74998C15.7509 8.98751 15.6218 8.2305 15.3688 7.51123C17.0925 7.60545 18.7145 8.35647 19.9015 9.60986C21.0884 10.8632 21.7501 12.5238 21.7504 14.25Z" fill="black" fill-opacity="0.05"/>
<path d="M15.8972 6.80537C15.2184 5.21627 14.0118 3.91029 12.4812 3.10822C10.9506 2.30616 9.19006 2.05721 7.49712 2.40347C5.80418 2.74973 4.28274 3.66996 3.19001 5.00857C2.09727 6.34719 1.5003 8.02207 1.5 9.75006V15.9376C1.5 16.2857 1.63828 16.6195 1.88442 16.8656C2.13056 17.1118 2.4644 17.2501 2.8125 17.2501H8.12531C8.71058 18.5866 9.67231 19.7238 10.8931 20.5229C12.1139 21.322 13.5409 21.7484 15 21.7501H21.1875C21.5356 21.7501 21.8694 21.6118 22.1156 21.3656C22.3617 21.1195 22.5 20.7857 22.5 20.4376V14.2501C22.4996 12.4166 21.8277 10.6467 20.6111 9.27497C19.3945 7.90325 17.7175 7.02471 15.8972 6.80537ZM3 9.75006C3 8.56337 3.35189 7.40333 4.01118 6.41664C4.67047 5.42994 5.60754 4.66091 6.7039 4.20678C7.80026 3.75266 9.00666 3.63384 10.1705 3.86535C11.3344 4.09686 12.4035 4.6683 13.2426 5.50742C14.0818 6.34653 14.6532 7.41563 14.8847 8.57952C15.1162 9.7434 14.9974 10.9498 14.5433 12.0462C14.0892 13.1425 13.3201 14.0796 12.3334 14.7389C11.3467 15.3982 10.1867 15.7501 9 15.7501H3V9.75006ZM21 20.2501H15C13.939 20.2488 12.8973 19.967 11.9805 19.433C11.0637 18.899 10.3045 18.132 9.78 17.2097C10.8072 17.1032 11.8013 16.7854 12.6999 16.2763C13.5985 15.7673 14.3822 15.078 15.0018 14.2518C15.6213 13.4255 16.0634 12.4801 16.3003 11.4749C16.5371 10.4697 16.5636 9.42633 16.3781 8.41037C17.6937 8.72084 18.8659 9.46644 19.7048 10.5263C20.5436 11.5862 21 12.8984 21 14.2501V20.2501Z" fill="black"/>
</svg>
