<svg width="21" height="20" viewBox="0 0 21 20" fill="none" xmlns="http://www.w3.org/2000/svg">
<path d="M18.625 16.25C18.625 16.4158 18.5592 16.5747 18.4419 16.6919C18.3247 16.8092 18.1658 16.875 18 16.875H3C2.83424 16.875 2.67527 16.8092 2.55806 16.6919C2.44085 16.5747 2.375 16.4158 2.375 16.25V3.75C2.375 3.58424 2.44085 3.42527 2.55806 3.30806C2.67527 3.19085 2.83424 3.125 3 3.125C3.16576 3.125 3.32473 3.19085 3.44194 3.30806C3.55915 3.42527 3.625 3.58424 3.625 3.75V11.1227L7.58828 7.65625C7.69613 7.56184 7.83315 7.50737 7.97638 7.50197C8.11961 7.49656 8.26034 7.54055 8.375 7.62656L12.9695 11.0727L17.5883 7.03125C17.6488 6.9713 17.721 6.92437 17.8004 6.89334C17.8797 6.86231 17.9646 6.84784 18.0498 6.85081C18.1349 6.85378 18.2186 6.87414 18.2956 6.91062C18.3726 6.94711 18.4413 6.99896 18.4976 7.06298C18.5538 7.127 18.5963 7.20185 18.6226 7.28292C18.6488 7.36399 18.6582 7.44956 18.6502 7.5344C18.6421 7.61923 18.6168 7.70152 18.5758 7.77622C18.5348 7.85091 18.479 7.91643 18.4117 7.96875L13.4117 12.3438C13.3039 12.4382 13.1669 12.4926 13.0236 12.498C12.8804 12.5034 12.7397 12.4594 12.625 12.3734L8.03047 8.92891L3.625 12.7836V15.625H18C18.1658 15.625 18.3247 15.6908 18.4419 15.8081C18.5592 15.9253 18.625 16.0842 18.625 16.25Z" fill="black"/>
</svg>
