<svg width="29" height="28" viewBox="0 0 29 28" fill="none" xmlns="http://www.w3.org/2000/svg">
<path d="M0.5 12C0.5 8.27247 0.5 6.4087 1.10896 4.93853C1.92092 2.97831 3.47831 1.42092 5.43853 0.608964C6.9087 0 8.77247 0 12.5 0C16.2275 0 18.0913 0 19.5615 0.608964C21.5217 1.42092 23.0791 2.97831 23.891 4.93853C24.5 6.4087 24.5 8.27247 24.5 12C24.5 15.7275 24.5 17.5913 23.891 19.0615C23.0791 21.0217 21.5217 22.5791 19.5615 23.391C18.0913 24 16.2275 24 12.5 24C8.77247 24 6.9087 24 5.43853 23.391C3.47831 22.5791 1.92092 21.0217 1.10896 19.0615C0.5 17.5913 0.5 15.7275 0.5 12Z" fill="black" fill-opacity="0.03"/>
<path d="M26.5 5.00002H19.5C18.9275 4.99767 18.3724 5.19673 17.9318 5.56235C17.4912 5.92797 17.1932 6.43688 17.09 7.00002L16.17 12.05C16.1064 12.4019 16.1209 12.7634 16.2125 13.109C16.3041 13.4546 16.4705 13.7758 16.7 14.05C16.9307 14.3243 17.2184 14.5451 17.5431 14.6971C17.8677 14.8491 18.2215 14.9285 18.58 14.93H21.5L21.25 15.59C21.0654 16.0794 21.0013 16.606 21.0631 17.1254C21.1248 17.6447 21.3107 18.1416 21.6048 18.574C21.899 19.0065 22.2929 19.3618 22.7533 19.61C23.2137 19.8582 23.727 19.992 24.25 20C24.4441 20.0016 24.6344 19.9466 24.7977 19.8418C24.9611 19.7371 25.0904 19.587 25.17 19.41L27.41 14.35C27.461 14.2398 27.4915 14.1212 27.5 14V6.00002C27.5 5.7348 27.3946 5.48045 27.2071 5.29291C27.0196 5.10538 26.7652 5.00002 26.5 5.00002ZM25.5 13.73L23.67 17.86C23.4908 17.7637 23.3366 17.6267 23.22 17.46C23.1023 17.2934 23.0279 17.1002 23.0035 16.8977C22.979 16.6952 23.0053 16.4898 23.08 16.3L23.46 15.3C23.56 15.0407 23.594 14.7606 23.5591 14.4848C23.5242 14.2091 23.4214 13.9463 23.26 13.72C23.101 13.4946 22.8896 13.3113 22.6439 13.1859C22.3983 13.0604 22.1258 12.9966 21.85 13H18.56C18.4936 13.0002 18.4279 12.986 18.3675 12.9584C18.307 12.9308 18.2533 12.8904 18.21 12.84C18.1324 12.7334 18.1 12.6004 18.12 12.47L19.04 7.47002C19.0357 7.40804 19.0446 7.34586 19.066 7.28755C19.0875 7.22925 19.121 7.17615 19.1645 7.13175C19.2079 7.08735 19.2603 7.05266 19.3181 7.02995C19.376 7.00725 19.4379 6.99705 19.5 7.00002H25.5V13.73ZM14.44 17.05H11.55L11.8 16.39C11.9819 15.8978 12.0423 15.3689 11.976 14.8484C11.9098 14.3278 11.7188 13.8309 11.4194 13.3999C11.12 12.969 10.7209 12.6167 10.2562 12.3729C9.79147 12.1292 9.27476 12.0013 8.75 12C8.55594 11.9985 8.36563 12.0535 8.20227 12.1582C8.03891 12.263 7.90956 12.413 7.83 12.59L5.59 17.65C5.5327 17.7757 5.50205 17.9119 5.5 18.05V26.05C5.5 26.3152 5.60536 26.5696 5.79289 26.7571C5.98043 26.9447 6.23478 27.05 6.5 27.05H13.5C14.0725 27.0524 14.6276 26.8533 15.0682 26.4877C15.5088 26.1221 15.8068 25.6132 15.91 25.05L16.83 20.05C16.8936 19.6982 16.8791 19.3367 16.7875 18.9911C16.6959 18.6455 16.5295 18.3242 16.3 18.05C16.0832 17.7562 15.8039 17.5141 15.4823 17.3412C15.1606 17.1683 14.8047 17.0689 14.44 17.05ZM13.96 24.63C13.9428 24.7377 13.8863 24.8352 13.8013 24.9036C13.7163 24.972 13.6089 25.0063 13.5 25H7.5V18.27L9.33 14.14C9.50923 14.2363 9.66337 14.3733 9.78 14.54C9.89768 14.7066 9.97209 14.8998 9.99653 15.1023C10.021 15.3048 9.99467 15.5102 9.92 15.7L9.54 16.7C9.44003 16.9594 9.40597 17.2395 9.44088 17.5152C9.47578 17.791 9.57856 18.0538 9.74 18.28C9.89675 18.5091 10.1072 18.6963 10.353 18.8253C10.5988 18.9543 10.8724 19.0212 11.15 19.02H14.44C14.5064 19.0198 14.5721 19.034 14.6325 19.0617C14.693 19.0893 14.7467 19.1297 14.79 19.18C14.8676 19.2867 14.9 19.4196 14.88 19.55L13.96 24.63Z" fill="#111111"/>
</svg>
