<svg width="155" height="144" viewBox="0 0 155 144" fill="none" xmlns="http://www.w3.org/2000/svg">
<path d="M-14.7019 -25.1335H154.298V143.866H-14.7019V-25.1335Z" fill="#1B5E20"/>
<path d="M69.7981 107.228C96.2312 107.228 117.659 85.7998 117.659 59.3667C117.659 32.9336 96.2312 11.5054 69.7981 11.5054C43.365 11.5054 21.9368 32.9336 21.9368 59.3667C21.9368 85.7998 43.365 107.228 69.7981 107.228Z" fill="#EEEEEE"/>
<path d="M69.7981 96.0051C90.0331 96.0051 106.437 79.6014 106.437 59.3665C106.437 39.1315 90.0331 22.7278 69.7981 22.7278C49.5631 22.7278 33.1594 39.1315 33.1594 59.3665C33.1594 79.6014 49.5631 96.0051 69.7981 96.0051Z" fill="#1B5E20"/>
<path d="M10.3838 -0.0476074H129.212L69.7978 59.3665L10.3838 -0.0476074Z" fill="#1B5E20"/>
<path d="M69.7981 88.7436C86.0225 88.7436 99.175 75.5911 99.175 59.3667C99.175 43.1423 86.0225 29.9897 69.7981 29.9897C53.5737 29.9897 40.4211 43.1423 40.4211 59.3667C40.4211 75.5911 53.5737 88.7436 69.7981 88.7436Z" fill="#EEEEEE"/>
<path d="M69.7981 82.1421C82.3766 82.1421 92.5735 71.9452 92.5735 59.3667C92.5735 46.7882 82.3766 36.5913 69.7981 36.5913C57.2196 36.5913 47.0227 46.7882 47.0227 59.3667C47.0227 71.9452 57.2196 82.1421 69.7981 82.1421Z" fill="#1B5E20"/>
<path d="M66.4971 33.6204H73.0986V85.1126H66.4971V33.6204Z" fill="#EEEEEE"/>
<path d="M95.5439 56.0657V62.6672H44.0518V56.0657H95.5439Z" fill="#EEEEEE"/>
<path d="M85.642 38.803L90.3291 43.4901L53.9215 79.8977L49.2344 75.2436L85.642 38.803Z" fill="#EEEEEE"/>
<path d="M90.3291 75.2106L85.675 79.8977L49.2344 43.4901L53.9215 38.803L90.3291 75.2106Z" fill="#EEEEEE"/>
<path d="M69.7979 73.8899C77.8189 73.8899 84.3213 67.3875 84.3213 59.3665C84.3213 51.3454 77.8189 44.843 69.7979 44.843C61.7768 44.843 55.2744 51.3454 55.2744 59.3665C55.2744 67.3875 61.7768 73.8899 69.7979 73.8899Z" fill="#EEEEEE"/>
<path d="M69.7979 66.6282C73.8084 66.6282 77.0596 63.377 77.0596 59.3665C77.0596 55.3559 73.8084 52.1047 69.7979 52.1047C65.7873 52.1047 62.5361 55.3559 62.5361 59.3665C62.5361 63.377 65.7873 66.6282 69.7979 66.6282Z" fill="#1B5E20"/>
<path d="M69.7979 124.062C77.8189 124.062 84.3213 118.151 84.3213 110.859C84.3213 103.567 77.8189 97.6555 69.7979 97.6555C61.7768 97.6555 55.2744 103.567 55.2744 110.859C55.2744 118.151 61.7768 124.062 69.7979 124.062Z" fill="#EEEEEE"/>
<path d="M69.7979 109.208L44.0518 130.003H95.5439L69.7979 109.208Z" fill="#1B5E20"/>
</svg>
