<svg width="153" height="138" viewBox="0 0 153 138" fill="none" xmlns="http://www.w3.org/2000/svg">
<rect x="1.02869" y="1.27673" width="150.188" height="135.447" rx="9.94398" stroke="#1B5E20" stroke-width="2.05737"/>
<g clip-path="url(#clip0_254_1539)">
<path d="M50.1546 100.404V96.2055C50.1546 94.5956 49.1747 93.5461 47.495 93.5461C46.6553 93.5461 45.7455 93.826 45.1156 94.7359C44.6259 93.966 43.9262 93.5461 42.8764 93.5461C42.1764 93.5461 41.477 93.7559 40.9169 94.5258V93.6861H39.4473V100.404H40.9169V96.6951C40.9169 95.5057 41.5468 94.9456 42.5267 94.9456C43.506 94.9456 43.9963 95.5755 43.9963 96.6951V100.404H45.4659V96.6951C45.4659 95.5057 46.1654 94.9456 47.0752 94.9456C48.0551 94.9456 48.5448 95.5755 48.5448 96.6951V100.404H50.1546ZM71.9185 93.6861H69.5394V91.6567H68.0698V93.6861H66.7401V95.0154H68.0695V98.0949C68.0695 99.6346 68.6994 100.544 70.3791 100.544C71.009 100.544 71.7084 100.334 72.1987 100.054L71.7785 98.7946C71.3587 99.0745 70.869 99.1447 70.519 99.1447C69.8193 99.1447 69.5394 98.7248 69.5394 98.0248V95.0154H71.9185V93.6861ZM84.3754 93.5458C83.5357 93.5458 82.9759 93.966 82.6259 94.5258V93.6861H81.1563V100.404H82.6259V96.6253C82.6259 95.5057 83.1155 94.8758 84.0253 94.8758C84.3052 94.8758 84.6553 94.9459 84.9352 95.0158L85.355 93.6163C85.0751 93.5461 84.6553 93.5461 84.3754 93.5461M65.5504 94.2462C64.8504 93.7562 63.8707 93.5465 62.821 93.5465C61.1416 93.5465 60.022 94.3861 60.022 95.7158C60.022 96.8357 60.8617 97.4653 62.3313 97.6754L63.031 97.7455C63.8009 97.8851 64.2208 98.0952 64.2208 98.4453C64.2208 98.9349 63.661 99.2849 62.681 99.2849C61.7011 99.2849 60.9315 98.9349 60.4416 98.5852L59.7418 99.7048C60.5117 100.265 61.5614 100.544 62.6109 100.544C64.5705 100.544 65.6904 99.635 65.6904 98.3751C65.6904 97.1854 64.7805 96.5555 63.3808 96.3457L62.681 96.2756C62.0511 96.2055 61.5614 96.0658 61.5614 95.646C61.5614 95.156 62.0511 94.8761 62.821 94.8761C63.661 94.8761 64.5007 95.2258 64.9205 95.4359L65.5504 94.2462ZM104.6 93.5465C103.76 93.5465 103.2 93.9663 102.85 94.5261V93.6864H101.381V100.405H102.85V96.6256C102.85 95.506 103.34 94.8761 104.25 94.8761C104.53 94.8761 104.88 94.9463 105.16 95.0161L105.58 93.6166C105.3 93.5465 104.88 93.5465 104.6 93.5465ZM85.845 97.0455C85.845 99.0749 87.2444 100.544 89.4141 100.544C90.3937 100.544 91.0935 100.335 91.7932 99.7749L91.0935 98.5852C90.5337 99.005 89.9739 99.2148 89.344 99.2148C88.1543 99.2148 87.3146 98.3751 87.3146 97.0455C87.3146 95.7859 88.1543 94.9459 89.344 94.8761C89.9739 94.8761 90.5337 95.0859 91.0935 95.506L91.7932 94.3163C91.0935 93.7562 90.3937 93.5465 89.4141 93.5465C87.2444 93.5465 85.845 95.0161 85.845 97.0455ZM99.4214 97.0455V93.6864H97.9518V94.5261C97.4619 93.8965 96.7621 93.5465 95.8523 93.5465C93.9629 93.5465 92.4933 95.0161 92.4933 97.0455C92.4933 99.0749 93.9629 100.544 95.8523 100.544C96.8319 100.544 97.532 100.195 97.9518 99.5648V100.405H99.4214V97.0455ZM94.0327 97.0455C94.0327 95.8558 94.8025 94.8761 96.0621 94.8761C97.2518 94.8761 98.0918 95.7859 98.0918 97.0455C98.0918 98.2352 97.2518 99.2148 96.0621 99.2148C94.8025 99.1447 94.0327 98.2352 94.0327 97.0455ZM76.4676 93.5465C74.508 93.5465 73.1082 94.9459 73.1082 97.0455C73.1082 99.145 74.5077 100.544 76.5374 100.544C77.517 100.544 78.497 100.265 79.2668 99.635L78.5668 98.5852C78.007 99.005 77.3072 99.2849 76.6075 99.2849C75.6977 99.2849 74.7879 98.8651 74.5778 97.6751H79.5467V97.1156C79.6169 94.9459 78.3573 93.5465 76.4676 93.5465ZM76.4672 94.806C77.3767 94.806 78.007 95.3661 78.1466 96.4159H74.6476C74.7876 95.506 75.4175 94.806 76.4672 94.806ZM112.927 97.0455V91.0271H111.458V94.5261C110.968 93.8965 110.268 93.5465 109.358 93.5465C107.469 93.5465 105.999 95.0161 105.999 97.0455C105.999 99.0749 107.469 100.544 109.358 100.544C110.338 100.544 111.038 100.195 111.458 99.5648V100.405H112.927V97.0455ZM107.539 97.0455C107.539 95.8558 108.309 94.8761 109.568 94.8761C110.758 94.8761 111.598 95.7859 111.598 97.0455C111.598 98.2352 110.758 99.2148 109.568 99.2148C108.309 99.1447 107.539 98.2352 107.539 97.0455ZM58.4118 97.0455V93.6864H56.9422V94.5261C56.4523 93.8965 55.7525 93.5465 54.8427 93.5465C52.9533 93.5465 51.4837 95.0161 51.4837 97.0455C51.4837 99.0749 52.9533 100.544 54.8427 100.544C55.8227 100.544 56.5224 100.195 56.9422 99.5648V100.405H58.4118V97.0455ZM52.9533 97.0455C52.9533 95.8558 53.7231 94.8761 54.9827 94.8761C56.1724 94.8761 57.0124 95.7859 57.0124 97.0455C57.0124 98.2352 56.1724 99.2148 54.9827 99.2148C53.7231 99.1447 52.9533 98.2352 52.9533 97.0455Z" fill="black"/>
<path d="M65.0605 42.6691H87.1046V82.2785H65.0605V42.6691Z" fill="#FF5F00"/>
<path d="M66.4602 62.4742C66.4602 54.4265 70.2391 47.2882 76.0474 42.6693C71.7789 39.3103 66.3904 37.2809 60.512 37.2809C46.5852 37.2809 35.3184 48.5477 35.3184 62.4742C35.3184 76.4007 46.5852 87.6676 60.5117 87.6676C66.3901 87.6676 71.7785 85.6382 76.0474 82.2788C70.2391 77.73 66.4602 70.522 66.4602 62.4742Z" fill="#EB001B"/>
<path d="M116.846 62.4741C116.846 76.4003 105.579 87.6674 91.6529 87.6674C85.7745 87.6674 80.3861 85.638 76.1172 82.2787C81.9956 77.6601 85.7047 70.5219 85.7047 62.4741C85.7047 54.4263 81.9255 47.2881 76.1172 42.6692C80.3857 39.3102 85.7745 37.2808 91.6529 37.2808C105.579 37.2808 116.846 48.6177 116.846 62.4741Z" fill="#F79E1B"/>
</g>
<defs>
<clipPath id="clip0_254_1539">
<rect width="81.6092" height="63.4384" fill="white" transform="translate(35.3184 37.2808)"/>
</clipPath>
</defs>
</svg>
