<svg width="25" height="25" viewBox="0 0 25 25" fill="none" xmlns="http://www.w3.org/2000/svg">
<path d="M3.87287 6.85383H21.6955V4.87354H3.87287C2.78371 4.87354 1.89258 5.76467 1.89258 6.85383V18.7356C1.89258 19.8247 2.78371 20.7159 3.87287 20.7159H7.83345V18.7356H3.87287V6.85383ZM13.7743 12.7947H9.81374V14.5572C9.20975 15.1017 8.8236 15.8741 8.8236 16.7553C8.8236 17.6365 9.20975 18.4088 9.81374 18.9534V20.7159H13.7743V18.9534C14.3783 18.4088 14.7645 17.6266 14.7645 16.7553C14.7645 15.884 14.3783 15.1017 13.7743 14.5572V12.7947ZM11.794 18.2405C10.9722 18.2405 10.3088 17.5771 10.3088 16.7553C10.3088 15.9335 10.9722 15.2701 11.794 15.2701C12.6159 15.2701 13.2793 15.9335 13.2793 16.7553C13.2793 17.5771 12.6159 18.2405 11.794 18.2405ZM22.6856 8.83412H16.7448C16.2497 8.83412 15.7546 9.32919 15.7546 9.82426V19.7257C15.7546 20.2208 16.2497 20.7159 16.7448 20.7159H22.6856C23.1807 20.7159 23.6758 20.2208 23.6758 19.7257V9.82426C23.6758 9.32919 23.1807 8.83412 22.6856 8.83412ZM21.6955 18.7356H17.7349V10.8144H21.6955V18.7356Z" fill="#FF3D00"/>
</svg>
