<svg width="29" height="28" viewBox="0 0 29 28" fill="none" xmlns="http://www.w3.org/2000/svg">
<path d="M0.5 12C0.5 8.27247 0.5 6.4087 1.10896 4.93853C1.92092 2.97831 3.47831 1.42092 5.43853 0.608964C6.9087 0 8.77247 0 12.5 0C16.2275 0 18.0913 0 19.5615 0.608964C21.5217 1.42092 23.0791 2.97831 23.891 4.93853C24.5 6.4087 24.5 8.27247 24.5 12C24.5 15.7275 24.5 17.5913 23.891 19.0615C23.0791 21.0217 21.5217 22.5791 19.5615 23.391C18.0913 24 16.2275 24 12.5 24C8.77247 24 6.9087 24 5.43853 23.391C3.47831 22.5791 1.92092 21.0217 1.10896 19.0615C0.5 17.5913 0.5 15.7275 0.5 12Z" fill="#E3F5FF"/>
<path d="M8.5 11C8.5 9.114 8.5 8.172 9.086 7.586C9.672 7 10.614 7 12.5 7H20.5C22.386 7 23.328 7 23.914 7.586C24.5 8.172 24.5 9.114 24.5 11V19C24.5 21.828 24.5 23.243 23.621 24.121C22.743 25 21.328 25 18.5 25H14.5C11.672 25 10.257 25 9.379 24.121C8.5 23.243 8.5 21.828 8.5 19V11Z" stroke="#111111"/>
<path d="M19.5 22V25M13.5 22V25M13.5 12H19.5M13.5 16H19.5" stroke="#111111" stroke-linecap="round"/>
</svg>
