<svg width="12" height="12" viewBox="0 0 12 12" fill="none" xmlns="http://www.w3.org/2000/svg">
<path d="M9.96961 6.03559C9.96961 8.37657 8.07188 10.2743 5.7309 10.2743C3.38992 10.2743 1.49219 8.37657 1.49219 6.03559C1.49219 3.69461 3.38992 1.79688 5.7309 1.79688C8.07188 1.79688 9.96961 3.69461 9.96961 6.03559Z" fill="white"/>
<path d="M5.7309 4.62268V6.03559M5.7309 6.03559V7.44849M5.7309 6.03559H7.14381M5.7309 6.03559H4.318M9.96961 6.03559C9.96961 8.37657 8.07188 10.2743 5.7309 10.2743C3.38992 10.2743 1.49219 8.37657 1.49219 6.03559C1.49219 3.69461 3.38992 1.79688 5.7309 1.79688C8.07188 1.79688 9.96961 3.69461 9.96961 6.03559Z" stroke="#1B5E20" stroke-width="0.941936" stroke-linecap="round" stroke-linejoin="round"/>
</svg>
