<svg width="38" height="38" viewBox="0 0 38 38" fill="none" xmlns="http://www.w3.org/2000/svg">
<rect x="0.5625" y="0.612305" width="36.6354" height="36.6354" rx="18.3177" fill="#D8D8D8"/>
<path d="M24.5303 18.2251L19.5796 13.2744C19.4854 13.1842 19.3744 13.1136 19.2528 13.0665C19.0118 12.9674 18.7414 12.9674 18.5003 13.0665C18.3788 13.1136 18.2677 13.1842 18.1736 13.2744L13.2228 18.2251C13.1305 18.3174 13.0573 18.427 13.0073 18.5477C12.9574 18.6683 12.9316 18.7976 12.9316 18.9281C12.9316 19.1918 13.0364 19.4447 13.2228 19.6311C13.4093 19.8176 13.6622 19.9223 13.9258 19.9223C14.1895 19.9223 14.4424 19.8176 14.6288 19.6311L17.8864 16.3636V23.8789C17.8864 24.1415 17.9907 24.3933 18.1764 24.579C18.3621 24.7647 18.614 24.869 18.8766 24.869C19.1392 24.869 19.391 24.7647 19.5767 24.579C19.7624 24.3933 19.8667 24.1415 19.8667 23.8789V16.3636L23.1243 19.6311C23.2163 19.7239 23.3258 19.7976 23.4465 19.8479C23.5672 19.8981 23.6966 19.924 23.8273 19.924C23.958 19.924 24.0874 19.8981 24.2081 19.8479C24.3287 19.7976 24.4382 19.7239 24.5303 19.6311C24.6231 19.5391 24.6968 19.4296 24.747 19.3089C24.7973 19.1883 24.8232 19.0588 24.8232 18.9281C24.8232 18.7974 24.7973 18.668 24.747 18.5473C24.6968 18.4267 24.6231 18.3172 24.5303 18.2251Z" fill="black"/>
</svg>
