<svg width="19" height="18" viewBox="0 0 19 18" fill="none" xmlns="http://www.w3.org/2000/svg">
<g clip-path="url(#clip0_1075_1586)">
<path d="M14.3285 4.47421C13.9178 4.47421 13.5871 4.8049 13.5871 5.21566V12.6406C13.5871 14.6909 11.9267 16.3548 9.87289 16.3548C7.81911 16.3548 6.15868 14.6909 6.15868 12.6406V3.72928C6.15868 2.50049 7.15424 1.50145 8.38651 1.50145C9.61877 1.50145 10.6143 2.50049 10.6143 3.72928V11.1577C10.6143 11.5685 10.2802 11.8991 9.87289 11.8991C9.46561 11.8991 9.13144 11.5685 9.13144 11.1577V5.21566C9.13144 4.8049 8.79726 4.47421 8.38999 4.47421C7.97923 4.47421 7.64854 4.8049 7.64854 5.21566V11.1577C7.64854 12.39 8.6441 13.3855 9.87637 13.3855C11.1086 13.3855 12.1042 12.39 12.1042 11.1577V3.73276C12.1007 1.68246 10.4368 0.0185547 8.38651 0.0185547C6.33621 0.0185547 4.67578 1.68246 4.67578 3.73276V12.6441C4.67578 15.5159 7.00456 17.8412 9.87289 17.8412C12.7412 17.8412 15.07 15.5124 15.07 12.6441V5.21566C15.07 4.8049 14.7393 4.47421 14.3285 4.47421Z" fill="#151515"/>
</g>
<defs>
<clipPath id="clip0_1075_1586">
<rect width="17.8226" height="17.8226" fill="white" transform="translate(0.857422 0.0185547)"/>
</clipPath>
</defs>
</svg>
