<svg width="25" height="25" viewBox="0 0 25 25" fill="none" xmlns="http://www.w3.org/2000/svg">
<path d="M9.33094 13.2703C9.13511 13.2703 8.94368 13.3284 8.78085 13.4372C8.61802 13.546 8.49111 13.7006 8.41617 13.8815C8.34123 14.0625 8.32162 14.2616 8.35982 14.4536C8.39803 14.6457 8.49233 14.8221 8.63081 14.9606C8.76928 15.0991 8.94571 15.1934 9.13778 15.2316C9.32985 15.2698 9.52893 15.2502 9.70986 15.1752C9.89078 15.1003 10.0454 14.9734 10.1542 14.8106C10.263 14.6477 10.3211 14.4563 10.3211 14.2605C10.3211 13.9979 10.2168 13.746 10.0311 13.5603C9.84539 13.3746 9.59355 13.2703 9.33094 13.2703ZM9.33094 8.83446C9.13511 8.83446 8.94368 8.89253 8.78085 9.00133C8.61802 9.11013 8.49111 9.26477 8.41617 9.44569C8.34123 9.62662 8.32162 9.8257 8.35982 10.0178C8.39803 10.2098 8.49233 10.3863 8.63081 10.5247C8.76928 10.6632 8.94571 10.7575 9.13778 10.7957C9.32985 10.8339 9.52893 10.8143 9.70986 10.7394C9.89078 10.6644 10.0454 10.5375 10.1542 10.3747C10.263 10.2119 10.3211 10.0204 10.3211 9.8246C10.3211 9.562 10.2168 9.31015 10.0311 9.12447C9.84539 8.93878 9.59355 8.83446 9.33094 8.83446ZM12.7866 10.8148C12.5239 10.8148 12.2721 10.9191 12.0864 11.1048C11.9007 11.2904 11.7964 11.5423 11.7964 11.8049V12.795C11.7964 13.0576 11.9007 13.3095 12.0864 13.4952C12.2721 13.6809 12.5239 13.7852 12.7866 13.7852C13.0492 13.7852 13.301 13.6809 13.4867 13.4952C13.6724 13.3095 13.7767 13.0576 13.7767 12.795V11.8049C13.7767 11.5423 13.6724 11.2904 13.4867 11.1048C13.301 10.9191 13.0492 10.8148 12.7866 10.8148ZM21.2028 9.39884C20.8612 9.20231 20.484 9.07571 20.093 9.02641C19.702 8.97711 19.3051 9.00611 18.9255 9.1117C18.5303 9.21754 18.1623 9.40659 17.8462 9.66618L6.36051 3.0223C6.20999 2.9354 6.03924 2.88965 5.86543 2.88965C5.69163 2.88965 5.52088 2.9354 5.37036 3.0223C5.21742 3.10827 5.09006 3.23334 5.00133 3.3847C4.91261 3.53606 4.86569 3.70828 4.86539 3.88373V16.924C4.28106 17.121 3.77442 17.4986 3.41851 18.0022C3.0626 18.5058 2.87582 19.1095 2.88509 19.7261C2.88482 20.5003 3.18688 21.2441 3.72693 21.799C4.26697 22.3538 5.00232 22.6759 5.77632 22.6965H6.3506C9.59505 22.6889 12.7797 21.8229 15.5813 20.1865C18.3828 18.5501 20.7015 16.2015 22.3019 13.3792C22.6715 12.7039 22.7645 11.9115 22.5613 11.169C22.3581 10.4265 21.8746 9.79185 21.2127 9.39884H21.2028ZM6.84568 5.59668L16.6382 11.2504C15.5518 12.8715 14.0995 14.2144 12.3984 15.1707C10.6973 16.127 8.79524 16.6699 6.84568 16.7556V5.59668ZM20.579 12.4089C19.1091 14.9988 16.9624 17.1401 14.3688 18.6034C11.7752 20.0668 8.83238 20.7971 5.85553 20.7162C5.59293 20.7162 5.34108 20.6119 5.15539 20.4262C4.96971 20.2405 4.86539 19.9887 4.86539 19.7261C4.86461 19.5934 4.89051 19.4619 4.94153 19.3395C4.99256 19.217 5.06768 19.106 5.16243 19.0132C5.34845 18.8339 5.59718 18.7344 5.85553 18.7359H6.36051C8.90292 18.7349 11.3995 18.0587 13.5949 16.7766C15.7904 15.4945 17.606 13.6524 18.8561 11.4385C18.9162 11.3299 18.9984 11.2351 19.0973 11.1601C19.1962 11.085 19.3096 11.0315 19.4304 11.0029C19.6801 10.9344 19.9467 10.9663 20.173 11.092C20.4002 11.2141 20.5708 11.42 20.6484 11.666C20.7261 11.9119 20.7047 12.1785 20.5889 12.4089H20.579Z" fill="#1B5E20"/>
</svg>
