<svg width="82" height="88" viewBox="0 0 82 88" fill="none" xmlns="http://www.w3.org/2000/svg">
<rect width="82" height="87.6212" rx="41" fill="url(#paint0_linear_976_1398)" fill-opacity="0.84"/>
<path fill-rule="evenodd" clip-rule="evenodd" d="M32.196 28.974C32.73 26.354 35.062 24.5 37.732 24.5H44.268C46.938 24.5 49.268 26.354 49.804 28.974C49.8631 29.2625 50.0175 29.5227 50.2424 29.7128C50.4673 29.9029 50.7497 30.0118 51.044 30.022H51.11C53.916 30.146 56.072 30.49 57.872 31.672C59.006 32.416 59.982 33.372 60.742 34.49C61.688 35.878 62.104 37.474 62.304 39.402C62.5 41.288 62.5 43.65 62.5 46.642V46.812C62.5 49.804 62.5 52.168 62.304 54.052C62.104 55.98 61.688 57.576 60.742 58.966C59.9778 60.0831 59.0029 61.0404 57.872 61.784C56.466 62.706 54.852 63.114 52.896 63.308C50.98 63.5 48.578 63.5 45.526 63.5H36.474C33.422 63.5 31.02 63.5 29.104 63.308C27.148 63.114 25.534 62.708 24.128 61.784C22.9969 61.0398 22.022 60.0819 21.258 58.964C20.312 57.576 19.896 55.98 19.696 54.052C19.5 52.168 19.5 49.804 19.5 46.812V46.642C19.5 43.65 19.5 41.288 19.696 39.402C19.896 37.474 20.312 35.878 21.258 34.49C22.022 33.3721 22.9969 32.4142 24.128 31.67C25.928 30.49 28.084 30.146 30.89 30.024L30.924 30.022H30.956C31.2503 30.0118 31.5326 29.9029 31.7576 29.7128C31.9825 29.5227 32.1369 29.2625 32.196 28.974ZM37.732 27.5C36.452 27.5 35.378 28.386 35.136 29.572C34.746 31.492 33.042 33.004 30.992 33.022C28.296 33.142 26.852 33.472 25.772 34.18C24.9709 34.7079 24.2801 35.3864 23.738 36.178C23.186 36.988 22.854 38.026 22.678 39.712C22.502 41.424 22.5 43.632 22.5 46.728C22.5 49.824 22.5 52.03 22.68 53.742C22.854 55.428 23.186 56.466 23.74 57.278C24.276 58.066 24.966 58.746 25.774 59.276C26.608 59.822 27.676 60.152 29.402 60.324C31.15 60.498 33.402 60.5 36.556 60.5H45.444C48.596 60.5 50.848 60.5 52.598 60.324C54.324 60.152 55.392 59.824 56.226 59.276C57.034 58.746 57.726 58.066 58.262 57.276C58.814 56.466 59.146 55.428 59.322 53.742C59.498 52.03 59.5 49.822 59.5 46.728C59.5 43.634 59.5 41.424 59.32 39.712C59.146 38.026 58.814 36.988 58.26 36.178C57.7181 35.3857 57.0273 34.7064 56.226 34.178C55.15 33.472 53.706 33.142 51.006 33.022C48.958 33.002 47.254 31.494 46.864 29.572C46.736 28.9805 46.4078 28.4514 45.9348 28.0739C45.4619 27.6964 44.8731 27.4937 44.268 27.5H37.732ZM41 41.5C39.8065 41.5 38.6619 41.9741 37.818 42.818C36.9741 43.6619 36.5 44.8065 36.5 46C36.5 47.1935 36.9741 48.3381 37.818 49.182C38.6619 50.0259 39.8065 50.5 41 50.5C42.1935 50.5 43.3381 50.0259 44.182 49.182C45.0259 48.3381 45.5 47.1935 45.5 46C45.5 44.8065 45.0259 43.6619 44.182 42.818C43.3381 41.9741 42.1935 41.5 41 41.5ZM33.5 46C33.5 44.0109 34.2902 42.1032 35.6967 40.6967C37.1032 39.2902 39.0109 38.5 41 38.5C42.9891 38.5 44.8968 39.2902 46.3033 40.6967C47.7098 42.1032 48.5 44.0109 48.5 46C48.5 47.9891 47.7098 49.8968 46.3033 51.3033C44.8968 52.7098 42.9891 53.5 41 53.5C39.0109 53.5 37.1032 52.7098 35.6967 51.3033C34.2902 49.8968 33.5 47.9891 33.5 46ZM51.5 40C51.5 39.6022 51.658 39.2206 51.9393 38.9393C52.2206 38.658 52.6022 38.5 53 38.5H55C55.3978 38.5 55.7794 38.658 56.0607 38.9393C56.342 39.2206 56.5 39.6022 56.5 40C56.5 40.3978 56.342 40.7794 56.0607 41.0607C55.7794 41.342 55.3978 41.5 55 41.5H53C52.6022 41.5 52.2206 41.342 51.9393 41.0607C51.658 40.7794 51.5 40.3978 51.5 40Z" fill="white"/>
<defs>
<linearGradient id="paint0_linear_976_1398" x1="41" y1="0" x2="41" y2="87.6212" gradientUnits="userSpaceOnUse">
<stop stop-color="#E1D24C"/>
<stop offset="1" stop-color="#1B5E20"/>
</linearGradient>
</defs>
</svg>
