<svg width="45" height="55" viewBox="0 0 45 55" fill="none" xmlns="http://www.w3.org/2000/svg">
<circle cx="39.1299" cy="47.1364" r="1.38614" transform="rotate(168.906 39.1299 47.1364)" fill="#D9D9D9" stroke="black" stroke-width="0.856887"/>
<circle cx="14.9195" cy="52.0086" r="1.38614" transform="rotate(168.906 14.9195 52.0086)" fill="#D9D9D9" stroke="black" stroke-width="0.856887"/>
<ellipse cx="19.4039" cy="11.888" rx="18.0561" ry="4.13322" transform="rotate(168.906 19.4039 11.888)" fill="url(#paint0_linear_625_375)"/>
<rect x="9.58643" y="7.16951" width="7.8618" height="4.98467" transform="rotate(38.8492 9.58643 7.16951)" fill="#D9D9D9"/>
<rect x="5.58643" y="9.16951" width="7.8618" height="4.98467" transform="rotate(38.8492 5.58643 9.16951)" fill="#D9D9D9"/>
<rect x="17.7583" y="6.78867" width="7.8618" height="4.98468" transform="rotate(102.648 17.7583 6.78867)" fill="#D9D9D9"/>
<rect x="18.5078" y="3.67099" width="7.8618" height="4.98468" transform="rotate(35.3337 18.5078 3.67099)" fill="#D9D9D9"/>
<rect x="23.3779" y="2.3715" width="7.8618" height="4.98468" transform="rotate(35.3337 23.3779 2.3715)" fill="#D9D9D9"/>
<rect x="33.2729" y="5.88758" width="7.8618" height="4.98467" transform="rotate(131.087 33.2729 5.88758)" fill="#D9D9D9"/>
<path d="M39.1309 47.2612L14.7508 52.0417L1.64921 15.3678L37.0886 8.41876L39.1309 47.2612Z" fill="#1B5E20"/>
<path d="M24.8022 38.3796C24.7936 38.4807 24.658 38.5073 24.6119 38.4169L21.6293 32.5688C21.6046 32.5203 21.5459 32.5002 21.4966 32.5234L15.5549 35.315C15.4631 35.3581 15.3723 35.2539 15.4275 35.1689L19.0008 29.6618C19.0305 29.6161 19.0185 29.5552 18.9739 29.5242L13.5854 25.7743C13.5022 25.7164 13.5469 25.5856 13.6482 25.5909L20.2042 25.932C20.2585 25.9348 20.3053 25.894 20.3099 25.8398L20.8631 19.2983C20.8716 19.1973 21.0073 19.1707 21.0533 19.261L24.0359 25.1092C24.0607 25.1576 24.1194 25.1777 24.1686 25.1546L30.1103 22.363C30.2021 22.3199 30.2929 22.424 30.2377 22.5091L26.6644 28.0162C26.6348 28.0618 26.6467 28.1227 26.6914 28.1538L32.0798 31.9036C32.1631 31.9616 32.1183 32.0923 32.017 32.0871L25.4611 31.746C25.4067 31.7432 25.36 31.784 25.3554 31.8382L24.8022 38.3796Z" fill="#D9D9D9"/>
<defs>
<linearGradient id="paint0_linear_625_375" x1="1.34781" y1="11.888" x2="37.4601" y2="11.888" gradientUnits="userSpaceOnUse">
<stop stop-color="#D9D9D9"/>
<stop offset="0.335" stop-color="#D9D9D9"/>
<stop offset="1" stop-color="#737373"/>
</linearGradient>
</defs>
</svg>
