<svg width="25" height="24" viewBox="0 0 25 24" fill="none" xmlns="http://www.w3.org/2000/svg">
<path d="M0.5 12C0.5 8.27247 0.5 6.4087 1.10896 4.93853C1.92092 2.97831 3.47831 1.42092 5.43853 0.608964C6.9087 0 8.77247 0 12.5 0C16.2275 0 18.0913 0 19.5615 0.608964C21.5217 1.42092 23.0791 2.97831 23.891 4.93853C24.5 6.4087 24.5 8.27247 24.5 12C24.5 15.7275 24.5 17.5913 23.891 19.0615C23.0791 21.0217 21.5217 22.5791 19.5615 23.391C18.0913 24 16.2275 24 12.5 24C8.77247 24 6.9087 24 5.43853 23.391C3.47831 22.5791 1.92092 21.0217 1.10896 19.0615C0.5 17.5913 0.5 15.7275 0.5 12Z" fill="#E3F5FF"/>
<path d="M17.5 13H18.5C18.6326 13 18.7598 12.9474 18.8536 12.8536C18.9473 12.7598 19 12.6326 19 12.5C19 12.3674 18.9473 12.2402 18.8536 12.1465C18.7598 12.0527 18.6326 12 18.5 12H17.5V11H18.5C18.6326 11 18.7598 10.9474 18.8536 10.8536C18.9473 10.7598 19 10.6326 19 10.5C19 10.3674 18.9473 10.2402 18.8536 10.1465C18.7598 10.0527 18.6326 10 18.5 10H17.475C17.3646 8.90263 16.8933 7.87283 16.135 7.07191L17.3538 5.85378C17.4002 5.80733 17.4371 5.75218 17.4622 5.69148C17.4873 5.63079 17.5003 5.56573 17.5003 5.50003C17.5003 5.43434 17.4873 5.36928 17.4622 5.30859C17.4371 5.24789 17.4002 5.19274 17.3538 5.14628C17.3073 5.09983 17.2521 5.06298 17.1914 5.03784C17.1308 5.0127 17.0657 4.99976 17 4.99976C16.9343 4.99976 16.8692 5.0127 16.8086 5.03784C16.7479 5.06298 16.6927 5.09983 16.6462 5.14628L15.3781 6.41503C14.5365 5.81967 13.5309 5.49996 12.5 5.49996C11.4691 5.49996 10.4635 5.81967 9.62187 6.41503L8.35375 5.14628C8.25993 5.05246 8.13268 4.99976 8 4.99976C7.86732 4.99976 7.74007 5.05246 7.64625 5.14628C7.55243 5.2401 7.49972 5.36735 7.49972 5.50003C7.49972 5.63272 7.55243 5.75996 7.64625 5.85378L8.865 7.07191C8.1067 7.87283 7.63544 8.90263 7.525 10H6.5C6.36739 10 6.24021 10.0527 6.14645 10.1465C6.05268 10.2402 6 10.3674 6 10.5C6 10.6326 6.05268 10.7598 6.14645 10.8536C6.24021 10.9474 6.36739 11 6.5 11H7.5V12H6.5C6.36739 12 6.24021 12.0527 6.14645 12.1465C6.05268 12.2402 6 12.3674 6 12.5C6 12.6326 6.05268 12.7598 6.14645 12.8536C6.24021 12.9474 6.36739 13 6.5 13H7.5V13.5C7.5 13.6688 7.50875 13.8357 7.525 14H6.5C6.36739 14 6.24021 14.0527 6.14645 14.1465C6.05268 14.2402 6 14.3674 6 14.5C6 14.6326 6.05268 14.7598 6.14645 14.8536C6.24021 14.9474 6.36739 15 6.5 15H7.73C8.04904 16.0152 8.68366 16.9022 9.54155 17.5318C10.3994 18.1615 11.4358 18.501 12.5 18.501C13.5642 18.501 14.6006 18.1615 15.4584 17.5318C16.3163 16.9022 16.951 16.0152 17.27 15H18.5C18.6326 15 18.7598 14.9474 18.8536 14.8536C18.9473 14.7598 19 14.6326 19 14.5C19 14.3674 18.9473 14.2402 18.8536 14.1465C18.7598 14.0527 18.6326 14 18.5 14H17.475C17.4913 13.8357 17.5 13.6688 17.5 13.5V13ZM12.5 6.50003C13.4738 6.50125 14.4138 6.85728 15.1441 7.5015C15.8744 8.14572 16.3448 9.03398 16.4675 10H8.53C8.65271 9.03355 9.12356 8.14495 9.85435 7.50067C10.5851 6.8564 11.5258 6.50064 12.5 6.50003ZM13 17.4675V12.5C13 12.3674 12.9473 12.2402 12.8536 12.1465C12.7598 12.0527 12.6326 12 12.5 12C12.3674 12 12.2402 12.0527 12.1464 12.1465C12.0527 12.2402 12 12.3674 12 12.5V17.4675C11.0339 17.3449 10.1457 16.8744 9.50146 16.1441C8.85724 15.4138 8.50121 14.4738 8.5 13.5V11H16.5V13.5C16.4988 14.4738 16.1428 15.4138 15.4985 16.1441C14.8543 16.8744 13.9661 17.3449 13 17.4675Z" fill="black"/>
</svg>
