<svg width="25" height="24" viewBox="0 0 25 24" fill="none" xmlns="http://www.w3.org/2000/svg">
<path d="M0.5 12C0.5 8.27247 0.5 6.4087 1.10896 4.93853C1.92092 2.97831 3.47831 1.42092 5.43853 0.608964C6.9087 0 8.77247 0 12.5 0C16.2275 0 18.0913 0 19.5615 0.608964C21.5217 1.42092 23.0791 2.97831 23.891 4.93853C24.5 6.4087 24.5 8.27247 24.5 12C24.5 15.7275 24.5 17.5913 23.891 19.0615C23.0791 21.0217 21.5217 22.5791 19.5615 23.391C18.0913 24 16.2275 24 12.5 24C8.77247 24 6.9087 24 5.43853 23.391C3.47831 22.5791 1.92092 21.0217 1.10896 19.0615C0.5 17.5913 0.5 15.7275 0.5 12Z" fill="#E5ECF6"/>
<path d="M12.5002 9.50001C12.0057 9.50001 11.5224 9.64663 11.1112 9.92133C10.7001 10.196 10.3797 10.5865 10.1905 11.0433C10.0012 11.5001 9.95173 12.0028 10.0482 12.4877C10.1447 12.9727 10.3828 13.4181 10.7324 13.7678C11.082 14.1174 11.5275 14.3555 12.0124 14.452C12.4974 14.5484 13 14.4989 13.4569 14.3097C13.9137 14.1205 14.3041 13.8001 14.5788 13.3889C14.8535 12.9778 15.0002 12.4945 15.0002 12C15.0002 11.337 14.7368 10.7011 14.2679 10.2322C13.7991 9.7634 13.1632 9.50001 12.5002 9.50001ZM12.5002 13.5C12.2035 13.5 11.9135 13.412 11.6668 13.2472C11.4201 13.0824 11.2279 12.8481 11.1143 12.574C11.0008 12.2999 10.9711 11.9983 11.029 11.7074C11.0869 11.4164 11.2297 11.1491 11.4395 10.9393C11.6493 10.7296 11.9165 10.5867 12.2075 10.5288C12.4985 10.471 12.8001 10.5007 13.0742 10.6142C13.3483 10.7277 13.5825 10.92 13.7474 11.1667C13.9122 11.4133 14.0002 11.7033 14.0002 12C14.0002 12.3978 13.8421 12.7794 13.5608 13.0607C13.2795 13.342 12.898 13.5 12.5002 13.5ZM17.107 13.9463C16.8922 14.4541 16.5949 14.9229 16.227 15.3338C16.138 15.4301 16.0146 15.4876 15.8835 15.4938C15.7524 15.5 15.6241 15.4545 15.5264 15.3669C15.4286 15.2794 15.3691 15.157 15.3608 15.026C15.3525 14.895 15.3961 14.766 15.482 14.6669C16.1386 13.9338 16.5016 12.9844 16.5016 12.0003C16.5016 11.0163 16.1386 10.0668 15.482 9.33376C15.437 9.28504 15.4021 9.22786 15.3794 9.16554C15.3567 9.10322 15.3467 9.037 15.3498 8.97074C15.3529 8.90449 15.3692 8.83952 15.3977 8.77962C15.4262 8.71972 15.4663 8.66609 15.5157 8.62185C15.5652 8.57761 15.6229 8.54365 15.6856 8.52194C15.7483 8.50023 15.8146 8.49121 15.8808 8.4954C15.947 8.49959 16.0117 8.51691 16.0712 8.54635C16.1306 8.57579 16.1836 8.61676 16.227 8.66688C16.8584 9.37334 17.2762 10.2445 17.432 11.1791C17.5878 12.1136 17.4751 13.0732 17.107 13.9463ZM8.81266 10.4431C8.51764 11.1415 8.42716 11.9093 8.55176 12.6571C8.67636 13.4049 9.0109 14.1019 9.51641 14.6669C9.60237 14.766 9.6459 14.895 9.6376 15.026C9.62931 15.157 9.56986 15.2794 9.47208 15.3669C9.3743 15.4545 9.24603 15.5 9.11495 15.4938C8.98386 15.4876 8.86047 15.4301 8.77141 15.3338C7.95052 14.4175 7.4966 13.2305 7.4966 12.0003C7.4966 10.7701 7.95052 9.58316 8.77141 8.66688C8.85984 8.56784 8.98399 8.50799 9.11656 8.50048C9.24912 8.49298 9.37924 8.53845 9.47828 8.62688C9.57732 8.71532 9.63718 8.83947 9.64468 8.97204C9.65218 9.1046 9.60671 9.23472 9.51828 9.33376C9.22328 9.66194 8.98483 10.0368 8.81266 10.4431ZM20.0002 12C20.0032 13.9636 19.2333 15.8495 17.857 17.25C17.8115 17.2987 17.7567 17.3378 17.6958 17.365C17.635 17.3922 17.5693 17.4069 17.5026 17.4083C17.436 17.4098 17.3697 17.3979 17.3078 17.3733C17.2458 17.3488 17.1894 17.3121 17.1418 17.2654C17.0942 17.2188 17.0564 17.163 17.0307 17.1016C17.0049 17.0401 16.9917 16.9741 16.9919 16.9074C16.992 16.8407 17.0055 16.7748 17.0315 16.7134C17.0575 16.652 17.0955 16.5965 17.1433 16.55C18.335 15.3359 19.0026 13.7025 19.0026 12.0013C19.0026 10.3 18.335 8.66666 17.1433 7.45251C17.0501 7.35786 16.9984 7.23008 16.9994 7.09728C17.0005 6.96448 17.0543 6.83754 17.1489 6.74438C17.2436 6.65123 17.3713 6.59948 17.5041 6.60054C17.6369 6.60159 17.7639 6.65536 17.857 6.75001C19.2333 8.15053 20.0032 10.0364 20.0002 12ZM7.85703 16.5488C7.90308 16.5956 7.93944 16.6511 7.96404 16.712C7.98865 16.7729 8.00101 16.8381 8.00043 16.9038C7.99985 16.9695 7.98634 17.0344 7.96066 17.0949C7.93498 17.1554 7.89765 17.2102 7.85078 17.2563C7.80392 17.3023 7.74844 17.3387 7.68752 17.3633C7.6266 17.3879 7.56143 17.4002 7.49574 17.3997C7.43004 17.3991 7.3651 17.3856 7.30462 17.3599C7.24415 17.3342 7.18933 17.2969 7.14328 17.25C5.76715 15.8491 4.99609 13.9638 4.99609 12C4.99609 10.0362 5.76715 8.15096 7.14328 6.75001C7.18881 6.70133 7.24362 6.66224 7.30448 6.63505C7.36534 6.60786 7.43102 6.59311 7.49766 6.59167C7.56431 6.59023 7.63056 6.60213 7.69254 6.62668C7.75451 6.65122 7.81096 6.6879 7.85855 6.73458C7.90614 6.78125 7.94391 6.83697 7.96966 6.89846C7.9954 6.95994 8.00859 7.02595 8.00845 7.09261C8.00831 7.15927 7.99484 7.22523 7.96883 7.2866C7.94283 7.34798 7.90482 7.40354 7.85703 7.45001C6.66532 8.66416 5.99768 10.2975 5.99768 11.9988C5.99768 13.7 6.66532 15.3334 7.85703 16.5475V16.5488Z" fill="black"/>
</svg>
