<svg width="24" height="25" viewBox="0 0 24 25" fill="none" xmlns="http://www.w3.org/2000/svg">
<g clip-path="url(#clip0_254_6202)">
<path fill-rule="evenodd" clip-rule="evenodd" d="M20.452 21.0589H16.892V15.4889C16.892 14.1609 16.87 12.4529 15.042 12.4529C13.191 12.4529 12.908 13.8999 12.908 15.3949V21.0589H9.352V9.60589H12.765V11.1719H12.814C13.289 10.2719 14.45 9.32189 16.181 9.32189C19.786 9.32189 20.451 11.6929 20.451 14.7779L20.452 21.0589ZM5.339 8.04189C4.79133 8.04189 4.26609 7.82433 3.87882 7.43706C3.49156 7.0498 3.274 6.52456 3.274 5.97689C3.274 5.42921 3.49156 4.90397 3.87882 4.51671C4.26609 4.12945 4.79133 3.91189 5.339 3.91189C5.88667 3.91189 6.41191 4.12945 6.79918 4.51671C7.18644 4.90397 7.404 5.42921 7.404 5.97689C7.404 6.52456 7.18644 7.0498 6.79918 7.43706C6.41191 7.82433 5.88667 8.04189 5.339 8.04189ZM7.12 21.0589H3.558V9.60589H7.12V21.0589ZM23 0.608887H1C0.734784 0.608887 0.48043 0.714244 0.292893 0.90178C0.105357 1.08932 0 1.34367 0 1.60889L0 23.6089C0 23.8741 0.105357 24.1285 0.292893 24.316C0.48043 24.5035 0.734784 24.6089 1 24.6089H23C23.2652 24.6089 23.5196 24.5035 23.7071 24.316C23.8946 24.1285 24 23.8741 24 23.6089V1.60889C24 1.34367 23.8946 1.08932 23.7071 0.90178C23.5196 0.714244 23.2652 0.608887 23 0.608887Z" fill="#111111"/>
</g>
<defs>
<clipPath id="clip0_254_6202">
<rect width="24" height="24" fill="white" transform="translate(0 0.608887)"/>
</clipPath>
</defs>
</svg>
