<svg width="16" height="16" viewBox="0 0 16 16" fill="none" xmlns="http://www.w3.org/2000/svg">
<path d="M11.6624 7.4999C11.6874 7.5374 11.7499 7.5124 11.7499 7.4749C11.8249 6.7999 12.0249 4.9374 13.3499 4.5374C13.7749 4.4124 14.1999 4.7124 14.2499 5.0999C14.3374 5.7249 13.6249 7.3374 13.6874 8.8124C13.6999 9.0499 14.0999 11.5624 13.0374 13.0499C11.9749 14.5374 9.44995 16.0499 6.93745 13.7499C5.63745 12.5624 5.63745 12.0874 4.02495 10.4249C3.69995 10.0999 2.39995 8.6749 2.04995 8.2374C1.58745 7.6499 2.32495 6.8749 2.88745 7.2749C3.14995 7.4624 5.47495 9.4124 5.56245 9.4999C5.73745 9.6499 5.94995 9.4374 5.82495 9.2874C4.39995 7.4124 3.02495 5.7249 2.64995 5.0749C2.27495 4.4249 3.17495 3.7249 3.69995 4.2874C4.06245 4.6624 6.74995 7.7999 6.87495 7.9374C6.99995 8.0749 7.21245 7.8999 7.13745 7.7249C7.04995 7.5624 4.87495 3.7749 4.48745 2.9124C4.14995 2.1499 5.27495 1.4374 5.79995 2.2249C6.22495 2.8499 8.59995 6.7999 8.68745 6.9374C8.79995 7.1374 9.04995 7.0124 8.94995 6.7874C8.87495 6.6249 7.41245 2.6249 7.29995 2.2124C7.09995 1.4874 8.13745 0.8874 8.62495 1.7124C9.28745 2.8499 10.5999 6.3249 11.6624 7.4999Z" fill="#FFCA28"/>
<mask id="mask0_1075_1556" style="mask-type:luminance" maskUnits="userSpaceOnUse" x="1" y="1" width="14" height="14">
<path d="M11.6624 7.4999C11.6874 7.5374 11.7499 7.5124 11.7499 7.4749C11.8249 6.7999 12.0249 4.9374 13.3499 4.5374C13.7749 4.4124 14.1999 4.7124 14.2499 5.0999C14.3374 5.7249 13.6249 7.3374 13.6874 8.8124C13.6999 9.0499 14.0999 11.5624 13.0374 13.0499C11.9749 14.5374 9.44995 16.0499 6.93745 13.7499C5.63745 12.5624 5.63745 12.0874 4.02495 10.4249C3.69995 10.0999 2.39995 8.6749 2.04995 8.2374C1.58745 7.6499 2.32495 6.8749 2.88745 7.2749C3.14995 7.4624 5.47495 9.4124 5.56245 9.4999C5.73745 9.6499 5.94995 9.4374 5.82495 9.2874C4.39995 7.4124 3.02495 5.7249 2.64995 5.0749C2.27495 4.4249 3.17495 3.7249 3.69995 4.2874C4.06245 4.6624 6.74995 7.7999 6.87495 7.9374C6.99995 8.0749 7.21245 7.8999 7.13745 7.7249C7.04995 7.5624 4.87495 3.7749 4.48745 2.9124C4.14995 2.1499 5.27495 1.4374 5.79995 2.2249C6.22495 2.8499 8.59995 6.7999 8.68745 6.9374C8.79995 7.1374 9.04995 7.0124 8.94995 6.7874C8.87495 6.6249 7.41245 2.6249 7.29995 2.2124C7.09995 1.4874 8.13745 0.8874 8.62495 1.7124C9.28745 2.8499 10.5999 6.3249 11.6624 7.4999Z" fill="white"/>
</mask>
<g mask="url(#mask0_1075_1556)">
<path d="M11.4011 7.525C9.85105 8.7875 9.16355 10.5875 10.4386 12.4625C10.5511 12.625 10.7886 12.475 10.6886 12.2875C10.1636 11.35 9.77605 9.6625 11.5886 7.9C11.8011 8 12.0511 7.7875 12.0636 7.6C12.2011 6.425 12.3386 5.45 13.2136 4.9C13.5511 4.6875 13.9886 4.8375 14.0136 5.35C14.0136 5.35 14.2886 5.375 14.4011 5.3875C14.4636 5.125 14.5886 4.65 14.5886 4.6375C14.5886 4.625 13.1136 4.075 13.1136 4.075L11.8261 5.35L11.4011 7.525ZM8.90105 7.0125C9.07605 6.925 9.22605 6.7875 9.15105 6.6C9.07605 6.4 7.68855 2.625 7.60105 2.3375C7.42605 1.8125 7.86355 1.4 8.25105 1.575C8.46355 1.675 8.56355 1.3375 8.45105 1.2875C8.33855 1.2375 8.07605 0.999996 7.55105 1.2625C6.61355 1.7375 7.16355 2.7875 7.41355 3.4C7.66355 4.0125 8.90105 7.0125 8.90105 7.0125ZM7.08855 7.95C7.30105 7.8 7.46355 7.675 7.27605 7.375C7.15105 7.175 5.03855 3.3375 4.82605 2.9625C4.51355 2.425 5.16355 1.95 5.52605 2.2875C5.68855 2.4375 5.93855 2.1125 5.81355 1.9875C5.68855 1.8625 5.25105 1.5 4.70105 1.8625C4.15105 2.225 4.13855 2.6625 4.21355 2.85C4.27605 3.0375 7.08855 7.95 7.08855 7.95ZM5.83855 9.4875C5.98855 9.2625 6.08855 9.15 5.87605 8.8625C5.66355 8.575 3.13855 5.275 3.00105 5.0875C2.65105 4.625 3.16355 4.225 3.41355 4.3625C3.65105 4.5 3.78855 4.1125 3.58855 4.0125C3.38855 3.9125 3.06355 3.8 2.76355 4.0125C2.46355 4.225 2.28855 4.6625 2.33855 4.9125C2.37605 5.1625 5.83855 9.4875 5.83855 9.4875Z" fill="#FAA700"/>
<path d="M11.6005 14.2001C9.57546 15.1626 8.06296 14.4126 7.08796 13.4626C5.97546 12.3751 5.45046 11.3751 4.71296 10.7001C4.46296 10.4626 2.48796 8.36261 2.25046 8.00011C2.06296 7.70011 2.43796 7.18761 2.85046 7.47511C3.11296 7.65011 3.23796 7.27511 3.06296 7.17511C2.88796 7.07511 2.50046 6.86261 2.08796 7.17511C1.67546 7.47511 1.66296 8.01261 1.76296 8.18761C1.86296 8.36261 7.93796 15.3376 7.93796 15.3376L10.413 15.2751L11.738 14.4626L11.6005 14.2001Z" fill="#FAA700"/>
</g>
<mask id="mask1_1075_1556" style="mask-type:luminance" maskUnits="userSpaceOnUse" x="1" y="1" width="14" height="14">
<path d="M11.6624 7.4999C11.6874 7.5374 11.7499 7.5124 11.7499 7.4749C11.8249 6.7999 12.0249 4.9374 13.3499 4.5374C13.7749 4.4124 14.1999 4.7124 14.2499 5.0999C14.3374 5.7249 13.6249 7.3374 13.6874 8.8124C13.6999 9.0499 14.0999 11.5624 13.0374 13.0499C11.9749 14.5374 9.44995 16.0499 6.93745 13.7499C5.63745 12.5624 5.63745 12.0874 4.02495 10.4249C3.69995 10.0999 2.39995 8.6749 2.04995 8.2374C1.58745 7.6499 2.32495 6.8749 2.88745 7.2749C3.14995 7.4624 5.47495 9.4124 5.56245 9.4999C5.73745 9.6499 5.94995 9.4374 5.82495 9.2874C4.39995 7.4124 3.02495 5.7249 2.64995 5.0749C2.27495 4.4249 3.17495 3.7249 3.69995 4.2874C4.06245 4.6624 6.74995 7.7999 6.87495 7.9374C6.99995 8.0749 7.21245 7.8999 7.13745 7.7249C7.04995 7.5624 4.87495 3.7749 4.48745 2.9124C4.14995 2.1499 5.27495 1.4374 5.79995 2.2249C6.22495 2.8499 8.59995 6.7999 8.68745 6.9374C8.79995 7.1374 9.04995 7.0124 8.94995 6.7874C8.87495 6.6249 7.41245 2.6249 7.29995 2.2124C7.09995 1.4874 8.13745 0.8874 8.62495 1.7124C9.28745 2.8499 10.5999 6.3249 11.6624 7.4999Z" fill="white"/>
</mask>
<g mask="url(#mask1_1075_1556)">
<path d="M13.9371 4.4999C13.9996 4.6624 14.0746 4.9499 13.9996 5.3374C13.7121 6.7874 13.2371 7.6374 13.3871 9.1999C13.6621 12.1999 12.6121 14.4749 8.99965 14.9249C8.63715 14.9749 8.73715 15.2499 8.92465 15.2249C9.01215 15.2124 11.5871 14.7499 11.5871 14.7499C11.5871 14.7499 13.9746 12.7124 13.9746 12.6874C13.9746 12.6624 14.5746 4.8874 14.5746 4.8874L13.9371 4.4999ZM7.68715 1.3124C7.84965 1.3374 8.19965 1.4749 8.44965 1.9624C8.69965 2.4499 9.92465 5.2624 10.0871 5.5624C10.2496 5.8624 10.9121 7.3499 11.4496 7.7999C11.6246 7.9374 11.7121 7.6999 11.7121 7.6999L11.7246 7.3124L8.82465 0.712402L7.86215 0.749902L7.68715 1.3124ZM8.89965 7.0124C8.66215 7.1249 8.48715 7.2249 8.31215 6.9499C8.19965 6.7499 6.98715 4.6749 5.46215 2.2499C5.33715 2.0624 5.04965 1.8999 4.82465 1.9874C4.59965 2.0874 4.54965 1.7999 4.66215 1.7374C4.77465 1.6749 5.47465 1.2874 5.94965 2.0874C6.42465 2.8874 8.89965 7.0124 8.89965 7.0124ZM7.08715 7.9499C6.89965 8.0874 6.71215 8.2624 6.47465 7.9749C6.24965 7.6999 3.68715 4.6499 3.53715 4.4624C3.38715 4.2749 3.07465 4.1124 2.83715 4.2624C2.67465 4.3624 2.52465 4.0624 2.62465 3.9874C2.72465 3.9124 3.28715 3.4124 3.66215 3.8374C4.03715 4.2624 7.08715 7.9499 7.08715 7.9499ZM5.83715 9.4874C5.67465 9.6624 5.49965 9.7624 5.26215 9.5874C5.02465 9.4124 2.89965 7.6249 2.76215 7.4999C2.62465 7.3749 2.22465 7.1874 1.92465 7.4874C1.81215 7.5999 1.61215 7.4124 1.72465 7.2999C1.83715 7.1749 2.44965 6.5499 2.93715 6.9624C3.42465 7.3749 5.83715 9.4874 5.83715 9.4874Z" fill="#B55E19"/>
</g>
<path d="M1.32433 10.1626C1.71183 11.3126 2.29933 12.0251 3.26183 12.6751C3.43683 12.8001 3.33683 13.0501 3.13683 12.9626C2.23683 12.6001 1.23683 11.8001 0.999325 10.2126C0.961825 10.0001 1.26183 9.96262 1.32433 10.1626ZM2.07433 9.47512C2.46183 10.6251 3.04932 11.3376 4.01182 11.9876C4.18682 12.1126 4.08683 12.3626 3.88683 12.2751C2.98683 11.9126 1.98683 11.1126 1.74933 9.52512C1.72433 9.31262 2.01183 9.27512 2.07433 9.47512ZM11.6868 4.32512C11.3868 3.15012 10.8368 2.40012 9.92432 1.70012C9.74932 1.57512 9.87432 1.32512 10.0743 1.41262C10.9493 1.82512 11.8993 2.70012 12.0243 4.30012C12.0368 4.51262 11.7368 4.53762 11.6868 4.32512ZM12.4993 3.72512C12.1993 2.55012 11.6493 1.80012 10.7368 1.10012C10.5618 0.975119 10.6868 0.725119 10.8868 0.812619C11.7618 1.22512 12.7118 2.10012 12.8368 3.70012C12.8493 3.90012 12.5618 3.92512 12.4993 3.72512Z" fill="#B0BEC5"/>
</svg>
