<svg width="153" height="138" viewBox="0 0 153 138" fill="none" xmlns="http://www.w3.org/2000/svg">
<rect x="1.27478" y="1.02869" width="149.943" height="135.943" rx="9.94398" stroke="#D9D9D9" stroke-width="2.05737"/>
<g clip-path="url(#clip0_254_1548)">
<path d="M96.6196 39.8708C93.436 36.2421 87.6812 34.6864 80.319 34.6864H58.9518C58.2233 34.6863 57.5188 34.9461 56.9648 35.4191C56.4108 35.8922 56.0438 36.5473 55.9297 37.2668L47.0329 93.6931C46.856 94.8057 47.7176 95.8133 48.8454 95.8133H62.0367L65.3496 74.8001L65.2468 75.4581C65.4828 73.9728 66.7531 72.8772 68.2574 72.8772H74.5259C86.8404 72.8772 96.4828 67.8754 99.2994 53.4062C99.3831 52.9783 99.4555 52.5617 99.5181 52.1548C99.1626 51.9666 99.1626 51.9666 99.5181 52.1548C100.357 46.8069 99.5124 43.1665 96.6196 39.8708Z" fill="#27346A"/>
<path d="M70.3971 50.2283C70.7577 50.0563 71.1522 49.9673 71.5516 49.9678H88.3031C90.2867 49.9678 92.1369 50.0969 93.8276 50.3691C94.3007 50.4445 94.7714 50.5346 95.239 50.6391C95.9016 50.7854 96.5566 50.9643 97.2016 51.1753C98.0328 51.4529 98.8068 51.7762 99.5183 52.1548C100.357 46.8048 99.5124 43.1665 96.6196 39.8708C93.4342 36.2421 87.6812 34.6864 80.319 34.6864H58.95C57.4455 34.6864 56.1655 35.7817 55.9297 37.2668L47.0329 93.691C46.856 94.8055 47.7176 95.8117 48.8435 95.8117H62.0367L68.91 52.2252C68.9776 51.7968 69.1483 51.3912 69.4073 51.0434C69.6664 50.6956 70.0061 50.4158 70.3971 50.2283Z" fill="#27346A"/>
<path d="M99.2994 53.4063C96.4828 67.8734 86.8406 72.8773 74.5259 72.8773H68.2556C66.7513 72.8773 65.4807 73.9728 65.247 75.4582L61.1255 101.586C60.9715 102.559 61.7246 103.442 62.7098 103.442H73.8297C74.4667 103.442 75.0827 103.214 75.567 102.8C76.0513 102.387 76.3721 101.814 76.4716 101.184L76.5799 100.618L78.6757 87.3351L78.8108 86.601C78.9103 85.9719 79.231 85.3989 79.7153 84.9851C80.1995 84.5713 80.8155 84.3439 81.4524 84.3436H83.1166C93.8886 84.3436 102.323 79.9674 104.788 67.3107C105.817 62.0215 105.285 57.6055 102.563 54.5036C101.737 53.5642 100.712 52.7882 99.5181 52.1549C99.4534 52.5639 99.3833 52.9783 99.2994 53.4063Z" fill="#2790C3"/>
<path d="M96.5697 50.9796C96.1305 50.8513 95.6872 50.7378 95.2404 50.6391C94.7726 50.5363 94.302 50.4469 93.8291 50.3709C92.1366 50.097 90.2877 49.9677 88.3023 49.9677H71.5529C71.1532 49.967 70.7585 50.0567 70.3984 50.2302C70.0068 50.417 69.6667 50.6966 69.4075 51.0445C69.1483 51.3925 68.9779 51.7984 68.911 52.2271L65.3509 74.8001L65.248 75.4581C65.4822 73.9728 66.7526 72.8773 68.2571 72.8773H74.5274C86.8418 72.8773 96.484 67.8754 99.3007 53.4062C99.3845 52.9783 99.4549 52.5636 99.5196 52.1549C98.8064 51.7786 98.0342 51.4528 97.2028 51.1772C96.993 51.1077 96.782 51.0418 96.5699 50.9796" fill="#1F264F"/>
</g>
<defs>
<clipPath id="clip0_254_1548">
<rect width="58.4901" height="69" fill="white" transform="translate(47.002 34.5)"/>
</clipPath>
</defs>
</svg>
