<svg width="32" height="33" viewBox="0 0 32 33" fill="none" xmlns="http://www.w3.org/2000/svg">
<path d="M28.6788 4.29638C28.6013 4.10906 28.4867 3.93348 28.335 3.78087C28.3327 3.7786 28.3304 3.77633 28.3282 3.77408C28.0389 3.48653 27.6403 3.30884 27.2002 3.30884H20.8002C19.9165 3.30884 19.2002 4.02518 19.2002 4.90884C19.2002 5.79249 19.9165 6.50884 20.8002 6.50884H23.3375L18.0688 11.7775C17.444 12.4023 17.444 13.4154 18.0688 14.0402C18.6937 14.665 19.7067 14.665 20.3316 14.0402L25.6002 8.77158V11.3088C25.6002 12.1925 26.3165 12.9088 27.2002 12.9088C28.0838 12.9088 28.8002 12.1925 28.8002 11.3088V4.90884C28.8002 4.69189 28.757 4.48503 28.6788 4.29638Z" fill="#111111"/>
<path d="M3.2002 4.90884C3.2002 4.02518 3.91654 3.30884 4.8002 3.30884H8.24479C9.02693 3.30884 9.69444 3.8743 9.82302 4.6458L11.0059 11.7432C11.1214 12.436 10.7715 13.1232 10.1432 13.4373L7.66621 14.6758C9.45229 19.1142 12.9949 22.6567 17.4332 24.4428L18.6717 21.9658C18.9858 21.3375 19.673 20.9876 20.3658 21.1031L27.4632 22.286C28.2347 22.4146 28.8002 23.0821 28.8002 23.8642V27.3088C28.8002 28.1925 28.0839 28.9088 27.2002 28.9088H24.0002C12.5127 28.9088 3.2002 19.5964 3.2002 8.10884V4.90884Z" fill="#111111"/>
</svg>
