<svg width="25" height="24" viewBox="0 0 25 24" fill="none" xmlns="http://www.w3.org/2000/svg">
<path d="M0.5 12C0.5 8.27247 0.5 6.4087 1.10896 4.93853C1.92092 2.97831 3.47831 1.42092 5.43853 0.608964C6.9087 0 8.77247 0 12.5 0C16.2275 0 18.0913 0 19.5615 0.608964C21.5217 1.42092 23.0791 2.97831 23.891 4.93853C24.5 6.4087 24.5 8.27247 24.5 12C24.5 15.7275 24.5 17.5913 23.891 19.0615C23.0791 21.0217 21.5217 22.5791 19.5615 23.391C18.0913 24 16.2275 24 12.5 24C8.77247 24 6.9087 24 5.43853 23.391C3.47831 22.5791 1.92092 21.0217 1.10896 19.0615C0.5 17.5913 0.5 15.7275 0.5 12Z" fill="#E5ECF6"/>
<path d="M18.9329 17.25C17.981 15.6044 16.5142 14.4244 14.8023 13.865C15.6491 13.3609 16.3069 12.5928 16.6749 11.6786C17.0429 10.7644 17.1006 9.75474 16.8392 8.80459C16.5778 7.85444 16.0117 7.01636 15.2279 6.41907C14.4441 5.82178 13.4859 5.49829 12.5004 5.49829C11.515 5.49829 10.5567 5.82178 9.77293 6.41907C8.98911 7.01636 8.42304 7.85444 8.16163 8.80459C7.90022 9.75474 7.95793 10.7644 8.32591 11.6786C8.69388 12.5928 9.35177 13.3609 10.1985 13.865C8.48666 14.4237 7.01979 15.6037 6.06791 17.25C6.03301 17.3069 6.00985 17.3702 5.99982 17.4363C5.98978 17.5023 5.99307 17.5696 6.00949 17.6343C6.02591 17.6991 6.05512 17.7598 6.09541 17.8131C6.13569 17.8663 6.18624 17.911 6.24405 17.9444C6.30187 17.9778 6.36579 17.9992 6.43204 18.0075C6.4983 18.0158 6.56554 18.0108 6.6298 17.9926C6.69407 17.9745 6.75405 17.9437 6.80622 17.902C6.85838 17.8604 6.90168 17.8087 6.93354 17.75C8.11104 15.715 10.1923 14.5 12.5004 14.5C14.8085 14.5 16.8898 15.715 18.0673 17.75C18.0992 17.8087 18.1424 17.8604 18.1946 17.902C18.2468 17.9437 18.3068 17.9745 18.371 17.9926C18.4353 18.0108 18.5025 18.0158 18.5688 18.0075C18.635 17.9992 18.699 17.9778 18.7568 17.9444C18.8146 17.911 18.8651 17.8663 18.9054 17.8131C18.9457 17.7598 18.9749 17.6991 18.9913 17.6343C19.0078 17.5696 19.011 17.5023 19.001 17.4363C18.991 17.3702 18.9678 17.3069 18.9329 17.25ZM9.00041 9.99999C9.00041 9.30776 9.20568 8.63107 9.59027 8.0555C9.97485 7.47992 10.5215 7.03132 11.161 6.76641C11.8006 6.50151 12.5043 6.43219 13.1832 6.56724C13.8622 6.70229 14.4858 7.03563 14.9753 7.52512C15.4648 8.0146 15.7981 8.63824 15.9332 9.31718C16.0682 9.99611 15.9989 10.6998 15.734 11.3394C15.4691 11.9789 15.0205 12.5256 14.4449 12.9101C13.8693 13.2947 13.1926 13.5 12.5004 13.5C11.5725 13.499 10.6828 13.1299 10.0266 12.4738C9.37047 11.8176 9.00141 10.9279 9.00041 9.99999Z" fill="black"/>
</svg>
