<svg width="54" height="55" viewBox="0 0 54 55" fill="none" xmlns="http://www.w3.org/2000/svg">
<path d="M54 27.5544C54 42.4661 41.9117 54.5544 27 54.5544C12.0883 54.5544 0 42.4661 0 27.5544C0 12.6428 12.0883 0.554443 27 0.554443C41.9117 0.554443 54 12.6428 54 27.5544Z" fill="#FFEB3B"/>
<path d="M44 27.6501C44 37.039 36.3888 44.6501 27 44.6501C17.6112 44.6501 10 37.039 10 27.6501C10 18.2613 17.6112 10.6501 27 10.6501C36.3888 10.6501 44 18.2613 44 27.6501Z" stroke="#1B5E20" stroke-width="2"/>
<path d="M40 32.6501C40 42.039 32.3888 49.6501 23 49.6501C13.6112 49.6501 6 42.039 6 32.6501C6 23.2613 13.6112 15.6501 23 15.6501C32.3888 15.6501 40 23.2613 40 32.6501Z" stroke="#1B5E20" stroke-width="2"/>
</svg>
