<svg width="20" height="20" viewBox="0 0 20 20" fill="none" xmlns="http://www.w3.org/2000/svg">
<path d="M13.2399 9.60879C13.2399 7.80879 11.7999 6.36879 9.9999 6.36879C8.1999 6.36879 6.7599 7.80879 6.7599 9.60879C6.7599 11.4088 8.1999 12.8488 9.9999 12.8488C11.7999 12.8488 13.2399 11.4088 13.2399 9.60879ZM14.9199 9.60879C14.9199 12.3688 12.7599 14.5288 9.9999 14.5288C7.2399 14.5288 5.0799 12.3688 5.0799 9.60879C5.0799 6.84879 7.2399 4.68879 9.9999 4.68879C12.7599 4.68879 14.9199 6.84879 14.9199 9.60879ZM16.2399 4.44879C16.2399 5.16879 15.7599 5.64879 15.0399 5.64879C14.3199 5.64879 13.8399 5.16879 13.8399 4.44879C13.8399 3.72879 14.3199 3.24879 15.0399 3.24879C15.7599 3.24879 16.2399 3.84879 16.2399 4.44879ZM9.9999 1.68879C8.5599 1.68879 5.5599 1.56879 4.3599 2.04879C3.5199 2.40879 2.7999 3.12879 2.5599 3.96879C2.0799 5.16879 2.1999 8.16879 2.1999 9.60879C2.1999 11.0488 2.0799 14.0488 2.5599 15.2488C2.7999 16.0888 3.5199 16.8088 4.3599 17.0488C5.5599 17.5288 8.6799 17.4088 9.9999 17.4088C11.3199 17.4088 14.4399 17.5288 15.6399 17.0488C16.4799 16.6888 17.0799 16.0888 17.4399 15.2488C17.9199 13.9288 17.7999 10.9288 17.7999 9.60879C17.7999 8.28879 17.9199 5.16879 17.4399 3.96879C17.1999 3.12879 16.4799 2.40879 15.6399 2.16879C14.4399 1.56879 11.4399 1.68879 9.9999 1.68879ZM19.5999 9.60879V13.5688C19.5999 15.0088 19.1199 16.4488 18.0399 17.6488C16.9599 18.7288 15.5199 19.2088 13.9599 19.2088H6.0399C4.5999 19.2088 3.1599 18.7288 1.9599 17.6488C0.999902 16.5688 0.399902 15.1288 0.399902 13.5688V5.64879C0.399902 4.08879 0.999902 2.64879 1.9599 1.56879C3.1599 0.608789 4.5999 0.00878906 6.0399 0.00878906H13.9599C15.3999 0.00878906 16.8399 0.488789 18.0399 1.56879C18.9999 2.64879 19.5999 4.08879 19.5999 5.64879V9.60879Z" fill="#111111"/>
</svg>
