<svg width="153" height="138" viewBox="0 0 153 138" fill="none" xmlns="http://www.w3.org/2000/svg">
<rect x="1.27478" y="1.02869" width="149.943" height="135.943" rx="9.94398" stroke="#D9D9D9" stroke-width="2.05737"/>
<g clip-path="url(#clip0_254_1545)">
<path d="M77.9465 63.1713C77.89 67.6248 81.9154 70.1099 84.9477 71.5875C88.0631 73.1034 89.1095 74.0757 89.0971 75.4315C89.0739 77.5062 86.6121 78.422 84.3084 78.4576C80.2892 78.5198 77.9523 77.3724 76.0945 76.5046L74.6466 83.2796C76.5106 84.1385 79.9621 84.8875 83.5412 84.9204C91.9426 84.9204 97.4391 80.7732 97.4688 74.3433C97.5017 66.1827 86.1813 65.731 86.2586 62.0835C86.2853 60.9775 87.3407 59.7972 89.6532 59.4971C90.7979 59.3455 93.9578 59.2295 97.5404 60.8793L98.9465 54.3244C97.0199 53.6229 94.5437 52.9511 91.4608 52.9511C83.5531 52.9511 77.9914 57.1548 77.9465 63.1713ZM112.458 53.5158C110.924 53.5158 109.631 54.4106 109.054 55.7839L97.0527 84.4389H105.448L107.119 79.8219H117.378L118.347 84.4389H125.746L119.289 53.5158H112.458ZM113.632 61.8693L116.055 73.4813H109.42L113.632 61.8693ZM67.7677 53.5161L61.1501 84.4386H69.1502L75.7646 53.5154L67.7677 53.5161ZM55.9329 53.5161L47.6061 74.5633L44.2378 56.6671C43.8425 54.6693 42.2817 53.5158 40.5485 53.5158H26.9367L26.7461 54.4137C29.5405 55.0201 32.7155 55.9981 34.639 57.0446C35.8162 57.6838 36.1519 58.2426 36.5386 59.7616L42.9183 84.4389H51.3723L64.3336 53.5158L55.9329 53.5161Z" fill="url(#paint0_linear_254_1545)"/>
</g>
<defs>
<linearGradient id="paint0_linear_254_1545" x1="4578.17" y1="149.051" x2="4670.71" y2="-3134.24" gradientUnits="userSpaceOnUse">
<stop stop-color="#222357"/>
<stop offset="1" stop-color="#254AA5"/>
</linearGradient>
<clipPath id="clip0_254_1545">
<rect width="99" height="32.0977" fill="white" transform="translate(26.7461 52.9512)"/>
</clipPath>
</defs>
</svg>
